<svg width="116" height="36" viewBox="0 0 116 36" fill="none" xmlns="http://www.w3.org/2000/svg">
<path d="M26.951 3.67277V10.9082L17.9673 15.9268V5.87176L24.4261 2.325C24.6771 2.18425 24.9613 2.10874 25.2513 2.10577C25.5412 2.10281 25.8271 2.17249 26.0811 2.30807C26.3351 2.44366 26.5486 2.64054 26.7011 2.87963C26.8535 3.11873 26.9396 3.39193 26.951 3.67277Z" fill="#0EA5EA"/>
<path opacity="0.3" d="M8.98355 3.67277V10.9082L17.9673 15.9268V5.87176L11.5085 2.325C11.2575 2.18425 10.9733 2.10874 10.6833 2.10577C10.3933 2.10281 10.1075 2.17249 9.8535 2.30807C9.5995 2.44366 9.38594 2.64054 9.23352 2.87963C9.0811 3.11873 8.995 3.39193 8.98355 3.67277Z" fill="#0EA5EA"/>
<path d="M25.1509 32.0785L18.8694 28.4878L18.9706 18.1978L27.7001 23.1878L27.5741 30.5552C27.5717 30.843 27.4962 31.1273 27.3549 31.3805C27.2135 31.6337 27.0112 31.8472 26.7674 32.0005C26.5237 32.1537 26.2468 32.2414 25.9635 32.2551C25.6803 32.2687 25.4004 32.2079 25.1509 32.0785Z" fill="#0EA5EA"/>
<path opacity="0.3" d="M34.0676 16.4797L27.786 12.889L18.9706 18.1978L27.7001 23.1878L33.9846 19.3406C34.2313 19.1925 34.438 18.9832 34.5844 18.733C34.7309 18.4827 34.8123 18.2 34.8206 17.9122C34.829 17.6244 34.764 17.3413 34.6321 17.0903C34.5001 16.8393 34.3057 16.629 34.0676 16.4797Z" fill="#0EA5EA"/>
<path opacity="0.3" d="M10.2771 32.0785L16.5586 28.4878L16.4574 18.1978L7.72785 23.1878L7.85393 30.5552C7.8563 30.843 7.9318 31.1273 8.07312 31.3805C8.21445 31.6337 8.41679 31.8472 8.66056 32.0005C8.90432 32.1537 9.18123 32.2414 9.46444 32.2551C9.74766 32.2687 10.0276 32.2079 10.2771 32.0785Z" fill="#0EA5EA"/>
<path d="M1.36043 16.4797L7.64198 12.889L16.4574 18.1978L7.72785 23.1878L1.44339 19.3406C1.19663 19.1925 0.990009 18.9832 0.843538 18.733C0.697066 18.4827 0.615716 18.2 0.607371 17.9122C0.599025 17.6244 0.663967 17.3413 0.795903 17.0903C0.92784 16.8393 1.1223 16.629 1.36043 16.4797Z" fill="#0EA5EA"/>
<path d="M54.9462 14.7737C54.8581 14.4145 54.7192 14.0993 54.5294 13.8281C54.3396 13.5502 54.1023 13.3164 53.8176 13.1266C53.5397 12.93 53.2144 12.7843 52.8416 12.6894C52.4755 12.5877 52.0722 12.5368 51.6316 12.5368C50.6827 12.5368 49.8726 12.7639 49.2016 13.2181C48.5373 13.6722 48.0289 14.3263 47.6765 15.1804C47.3308 16.0345 47.1579 17.0648 47.1579 18.2713C47.1579 19.4914 47.324 20.5353 47.6561 21.4029C47.9883 22.2706 48.4831 22.9349 49.1406 23.3958C49.7981 23.8567 50.6149 24.0872 51.591 24.0872C52.4518 24.0872 53.1669 23.9618 53.7363 23.711C54.3125 23.4602 54.7429 23.1043 55.0276 22.6434C55.3123 22.1825 55.4546 21.6402 55.4546 21.0166L56.4307 21.1183H51.6723V17.0919H60.9044V19.9795C60.9044 21.8774 60.5011 23.5008 59.6945 24.8497C58.8946 26.1919 57.7898 27.2222 56.3799 27.9407C54.9767 28.6524 53.3669 29.0083 51.5503 29.0083C49.5236 29.0083 47.7442 28.5778 46.2123 27.717C44.6804 26.8561 43.484 25.6293 42.6232 24.0363C41.7691 22.4434 41.3421 20.5489 41.3421 18.3527C41.3421 16.631 41.603 15.1058 42.125 13.7773C42.6537 12.4487 43.3857 11.3269 44.3212 10.4118C45.2566 9.48998 46.3377 8.79519 47.5646 8.32749C48.7915 7.853 50.1065 7.61576 51.5096 7.61576C52.7433 7.61576 53.8888 7.792 54.9462 8.14447C56.0104 8.49017 56.9492 8.98499 57.7627 9.62893C58.5828 10.2661 59.2437 11.0219 59.7453 11.8963C60.2469 12.7707 60.5519 13.7298 60.6604 14.7737H54.9462ZM71.105 29.0083C69.4375 29.0083 68.0005 28.6897 66.794 28.0525C65.5942 27.4086 64.669 26.4867 64.0182 25.2869C63.3743 24.0804 63.0523 22.6366 63.0523 20.9556C63.0523 19.3423 63.3777 17.9324 64.0284 16.7259C64.6791 15.5193 65.5976 14.5805 66.7838 13.9095C67.97 13.2384 69.3697 12.9029 70.983 12.9029C72.1624 12.9029 73.23 13.0859 74.1858 13.4519C75.1415 13.818 75.9583 14.3501 76.6361 15.0482C77.314 15.7396 77.8359 16.5801 78.2019 17.5698C78.568 18.5594 78.751 19.6745 78.751 20.9149V22.2163H64.8011V19.1254H73.5859C73.5791 18.678 73.4639 18.2849 73.2402 17.946C73.0233 17.6003 72.7284 17.3325 72.3556 17.1427C71.9896 16.9462 71.5727 16.8479 71.105 16.8479C70.6509 16.8479 70.234 16.9462 69.8544 17.1427C69.4748 17.3325 69.1698 17.5969 68.9393 17.9358C68.7156 18.2747 68.597 18.6713 68.5835 19.1254V22.4604C68.5835 22.962 68.6885 23.4093 68.8986 23.8025C69.1088 24.1956 69.4104 24.504 69.8036 24.7277C70.1967 24.9514 70.6712 25.0633 71.227 25.0633C71.6134 25.0633 71.9659 25.009 72.2844 24.9006C72.6098 24.7921 72.8877 24.6362 73.1182 24.4329C73.3486 24.2227 73.5181 23.9719 73.6266 23.6805H78.751C78.5748 24.765 78.1579 25.7072 77.5004 26.507C76.8429 27.3001 75.9719 27.9169 74.8873 28.3575C73.8096 28.7914 72.5488 29.0083 71.105 29.0083ZM86.6537 19.9388V28.7236H81.0412V13.1062H86.369V16.0752H86.5317C86.8706 15.0855 87.4671 14.3094 88.3212 13.7468C89.182 13.1842 90.1852 12.9029 91.3308 12.9029C92.4357 12.9029 93.3948 13.1571 94.2082 13.6654C95.0284 14.167 95.6622 14.8584 96.1095 15.7396C96.5637 16.6208 96.7874 17.6274 96.7806 18.7594V28.7236H91.1681V19.9388C91.1749 19.1661 90.9783 18.5594 90.5784 18.1188C90.1852 17.6782 89.6362 17.4579 88.9312 17.4579C88.4703 17.4579 88.067 17.5596 87.7213 17.763C87.3824 17.9595 87.1214 18.2442 86.9384 18.617C86.7554 18.9831 86.6605 19.4237 86.6537 19.9388ZM99.7139 28.7236V25.6326L106.547 17.4579V17.3766H99.9579V13.1062H113.176V16.5225L106.953 24.3719V24.4532H113.42V28.7236H99.7139Z" fill="#D8E6FB"/>
</svg>
