<svg width="385" height="360" viewBox="0 0 385 360" fill="none" xmlns="http://www.w3.org/2000/svg">
<g clip-path="url(#clip0_107_8507)">
<path d="M55.3003 100.61L56.9203 103.88L60.5303 104.41L57.9203 106.96L58.5403 110.56L55.3003 108.86L52.0703 110.56L52.6903 106.96L50.0703 104.41L53.6903 103.88L55.3003 100.61Z" fill="#EBEBEB"/>
<path d="M378.95 254.84L380.57 258.12L384.19 258.64L381.57 261.2L382.19 264.8L378.95 263.1L375.72 264.8L376.34 261.2L373.72 258.64L377.34 258.12L378.95 254.84Z" fill="#F5F5F5"/>
<path d="M314.85 349.93L316.46 353.2L320.08 353.73L317.46 356.28L318.08 359.88L314.85 358.18L311.61 359.88L312.23 356.28L309.62 353.73L313.23 353.2L314.85 349.93Z" fill="#F5F5F5"/>
<path d="M168.19 42.51L168.79 43.73L170.14 43.93C170.216 43.9399 170.287 43.971 170.345 44.0197C170.403 44.0684 170.447 44.1327 170.47 44.2051C170.493 44.2775 170.495 44.355 170.475 44.4284C170.456 44.5019 170.416 44.5684 170.36 44.62L169.36 45.62L169.59 46.96C169.602 47.0346 169.593 47.111 169.564 47.1808C169.536 47.2506 169.488 47.311 169.427 47.3555C169.366 47.4 169.294 47.4267 169.219 47.4328C169.143 47.4389 169.068 47.4241 169 47.39L167.8 46.75L166.6 47.39C166.532 47.423 166.457 47.437 166.382 47.4306C166.306 47.4241 166.234 47.3975 166.173 47.3535C166.111 47.3095 166.063 47.2497 166.032 47.1804C166.002 47.1112 165.991 47.035 166 46.96L166.23 45.62L165.23 44.62C165.174 44.5677 165.135 44.5005 165.116 44.4262C165.097 44.352 165.1 44.2739 165.124 44.2012C165.148 44.1285 165.193 44.0643 165.252 44.0163C165.312 43.9682 165.384 43.9383 165.46 43.93L166.8 43.73L167.4 42.51C167.424 42.4237 167.476 42.3476 167.547 42.2934C167.619 42.2392 167.706 42.2099 167.795 42.2099C167.885 42.2099 167.972 42.2392 168.044 42.2934C168.115 42.3476 168.166 42.4237 168.19 42.51Z" fill="#EBEBEB"/>
<path d="M3.00008 334.37L3.61008 335.58L4.95008 335.78C5.02533 335.792 5.09574 335.825 5.15342 335.875C5.2111 335.924 5.25376 335.989 5.2766 336.062C5.29945 336.135 5.30159 336.212 5.28277 336.286C5.26395 336.36 5.22493 336.427 5.17008 336.48L4.17008 337.42L4.40008 338.76C4.41189 338.835 4.40287 338.911 4.37403 338.981C4.34518 339.051 4.29763 339.111 4.23661 339.155C4.17558 339.2 4.10347 339.227 4.0282 339.233C3.95294 339.239 3.87746 339.224 3.81008 339.19L2.61008 338.56L1.41008 339.19C1.34269 339.224 1.26721 339.239 1.19195 339.233C1.11669 339.227 1.04457 339.2 0.983544 339.155C0.922522 339.111 0.874967 339.051 0.846122 338.981C0.817278 338.911 0.808264 338.835 0.820076 338.76L1.04008 337.42L0.0400759 336.48C-0.0149581 336.426 -0.0538455 336.359 -0.072157 336.284C-0.0904685 336.209 -0.0874681 336.131 -0.0634974 336.058C-0.0395266 335.985 0.0044507 335.92 0.0634257 335.871C0.122401 335.822 0.194003 335.79 0.270076 335.78L1.61008 335.58L2.21008 334.37C2.22507 334.276 2.27308 334.19 2.34548 334.129C2.41788 334.067 2.50992 334.033 2.60508 334.033C2.70023 334.033 2.79228 334.067 2.86467 334.129C2.93707 334.19 2.98508 334.276 3.00008 334.37Z" fill="#F5F5F5"/>
<path d="M30.0001 29.66L30.6001 30.88L31.9501 31.07C32.0253 31.082 32.0957 31.1148 32.1534 31.1646C32.2111 31.2144 32.2538 31.2793 32.2766 31.352C32.2995 31.4247 32.3016 31.5023 32.2828 31.5761C32.264 31.65 32.2249 31.7171 32.1701 31.77L31.1701 32.72L31.4001 34.05C31.4161 34.1255 31.4099 34.204 31.3822 34.2761C31.3546 34.3481 31.3067 34.4106 31.2443 34.4561C31.182 34.5015 31.1078 34.528 31.0307 34.5322C30.9537 34.5365 30.8771 34.5183 30.8101 34.48L29.6101 33.85L28.4101 34.48C28.3424 34.5168 28.2657 34.5339 28.1888 34.5291C28.1119 34.5244 28.0379 34.498 27.9752 34.4531C27.9126 34.4083 27.8639 34.3466 27.8347 34.2753C27.8055 34.204 27.7969 34.1259 27.8101 34.05L28.0401 32.72L27.0401 31.77C26.985 31.7165 26.9462 31.6485 26.9278 31.5739C26.9095 31.4994 26.9125 31.4211 26.9365 31.3482C26.9605 31.2752 27.0045 31.2105 27.0634 31.1613C27.1224 31.1121 27.194 31.0805 27.2701 31.07L28.6101 30.88L29.2101 29.66C29.2341 29.5737 29.2857 29.4976 29.357 29.4434C29.4284 29.3892 29.5155 29.3599 29.6051 29.3599C29.6947 29.3599 29.7818 29.3892 29.8531 29.4434C29.9244 29.4976 29.9761 29.5737 30.0001 29.66Z" fill="#EBEBEB"/>
<path d="M28.3797 270.68C28.3797 270.943 28.3017 271.2 28.1556 271.419C28.0094 271.638 27.8017 271.808 27.5587 271.909C27.3157 272.009 27.0483 272.036 26.7903 271.984C26.5323 271.933 26.2953 271.806 26.1093 271.62C25.9233 271.434 25.7966 271.197 25.7453 270.939C25.694 270.681 25.7203 270.414 25.821 270.171C25.9216 269.928 26.0921 269.72 26.3108 269.574C26.5295 269.428 26.7867 269.35 27.0497 269.35C27.4017 269.353 27.7384 269.494 27.9873 269.742C28.2361 269.991 28.3771 270.328 28.3797 270.68Z" fill="#EBEBEB"/>
<path d="M217.92 104.25C217.922 104.513 217.845 104.772 217.7 104.992C217.556 105.212 217.349 105.384 217.106 105.486C216.863 105.588 216.595 105.616 216.336 105.566C216.078 105.515 215.84 105.39 215.653 105.204C215.466 105.018 215.338 104.781 215.286 104.523C215.234 104.265 215.26 103.997 215.36 103.753C215.46 103.51 215.631 103.301 215.85 103.155C216.069 103.008 216.326 102.93 216.59 102.93C216.764 102.929 216.937 102.962 217.098 103.028C217.259 103.093 217.406 103.19 217.53 103.313C217.653 103.436 217.751 103.582 217.818 103.743C217.885 103.903 217.92 104.076 217.92 104.25Z" fill="#EBEBEB"/>
<path d="M149 30.76C149 31.0231 148.922 31.2802 148.776 31.4989C148.63 31.7176 148.422 31.8881 148.179 31.9888C147.936 32.0894 147.668 32.1158 147.41 32.0645C147.152 32.0131 146.915 31.8865 146.729 31.7005C146.543 31.5145 146.417 31.2775 146.365 31.0195C146.314 30.7615 146.34 30.4941 146.441 30.251C146.542 30.008 146.712 29.8003 146.931 29.6542C147.15 29.508 147.407 29.43 147.67 29.43C148.022 29.4326 148.359 29.5736 148.607 29.8224C148.856 30.0713 148.997 30.4081 149 30.76Z" fill="#F5F5F5"/>
<path d="M151.063 354.898C155.014 353.966 157.461 350.007 156.528 346.056C155.596 342.106 151.637 339.659 147.687 340.591C143.736 341.524 141.289 345.482 142.222 349.433C143.154 353.384 147.113 355.831 151.063 354.898Z" fill="#F0F0F0"/>
<path d="M146.85 343.45C145.345 343.447 143.877 343.923 142.66 344.81C142.039 346.236 141.886 347.822 142.225 349.34C142.563 350.858 143.375 352.229 144.543 353.256C145.711 354.283 147.175 354.912 148.724 355.053C150.273 355.194 151.826 354.839 153.16 354.04C153.751 352.948 154.048 351.721 154.022 350.479C153.995 349.237 153.647 348.024 153.011 346.957C152.375 345.891 151.473 345.008 150.393 344.395C149.313 343.782 148.092 343.46 146.85 343.46V343.45Z" fill="#E6E6E6"/>
<path d="M46.9405 78.24C31.6205 119.05 44.8405 174.14 68.5205 217.24C129.521 329.14 277.961 265.87 275.401 215.05C278.881 166.57 235.281 152.17 220.491 124.99C137.671 -28.43 59.2705 43.83 46.9405 78.24Z" fill="#0EA5EA"/>
<path opacity="0.9" d="M46.9405 78.24C31.6205 119.05 44.8405 174.14 68.5205 217.24C129.521 329.14 277.961 265.87 275.401 215.05C278.881 166.57 235.281 152.17 220.491 124.99C137.671 -28.43 59.2705 43.83 46.9405 78.24Z" fill="white"/>
<path d="M89.9303 220H29.0703V192.53L89.9303 120.19H119V194.09H134.09V220H119V242.47H89.9303V220ZM89.9303 194.08V156.25L57.7703 194.09L89.9303 194.08Z" fill="url(#paint0_linear_107_8507)"/>
<path d="M144.55 181.87C144.55 159.01 148.664 143.01 156.89 133.87C165.117 124.73 177.654 120.163 194.5 120.17C202.587 120.17 209.23 121.17 214.43 123.17C219.158 124.884 223.483 127.549 227.14 131C230.226 133.946 232.84 137.349 234.89 141.09C236.919 144.996 238.448 149.142 239.44 153.43C241.705 162.607 242.834 172.028 242.8 181.48C242.8 203.293 239.11 219.26 231.73 229.38C224.35 239.5 211.637 244.557 193.59 244.55C183.477 244.55 175.304 242.937 169.07 239.71C162.787 236.431 157.494 231.532 153.74 225.52C150.84 221.087 148.584 215.03 146.97 207.35C145.289 198.963 144.478 190.424 144.55 181.87ZM177.68 181.95C177.68 197.283 179.034 207.74 181.74 213.32C184.447 218.9 188.37 221.703 193.51 221.73C195.144 221.748 196.764 221.442 198.278 220.829C199.792 220.216 201.17 219.309 202.33 218.16C204.817 215.78 206.647 212.02 207.82 206.88C208.994 201.74 209.584 193.74 209.59 182.88C209.59 166.92 208.237 156.19 205.53 150.69C202.824 145.19 198.764 142.443 193.35 142.45C187.83 142.45 183.83 145.253 181.35 150.86C178.87 156.467 177.647 166.847 177.68 182V181.95Z" fill="url(#paint1_linear_107_8507)"/>
<path d="M314.001 220H253.141V192.53L314.001 120.19H343.121V194.09H358.201V220H343.111V242.47H314.001V220ZM314.001 194.08V156.25L281.851 194.09L314.001 194.08Z" fill="url(#paint2_linear_107_8507)"/>
<g opacity="0.3">
<path opacity="0.3" d="M143.2 78C143.2 78.3699 143.09 78.7314 142.885 79.0389C142.679 79.3464 142.387 79.5861 142.046 79.7277C141.704 79.8692 141.328 79.9062 140.965 79.8341C140.602 79.7619 140.269 79.5838 140.008 79.3223C139.746 79.0608 139.568 78.7276 139.496 78.3648C139.424 78.0021 139.461 77.6261 139.602 77.2844C139.744 76.9427 139.984 76.6506 140.291 76.4452C140.599 76.2397 140.96 76.13 141.33 76.13C141.826 76.13 142.302 76.327 142.652 76.6777C143.003 77.0284 143.2 77.504 143.2 78Z" fill="#0EA5EA"/>
<path opacity="0.3" d="M15.2096 149.81C15.9387 149.81 16.5296 149.219 16.5296 148.49C16.5296 147.761 15.9387 147.17 15.2096 147.17C14.4806 147.17 13.8896 147.761 13.8896 148.49C13.8896 149.219 14.4806 149.81 15.2096 149.81Z" fill="#0EA5EA"/>
<path opacity="0.3" d="M233.299 342.58C234.343 342.58 235.189 341.734 235.189 340.69C235.189 339.646 234.343 338.8 233.299 338.8C232.255 338.8 231.409 339.646 231.409 340.69C231.409 341.734 232.255 342.58 233.299 342.58Z" fill="#0EA5EA"/>
<path opacity="0.3" d="M278.75 265.68C279.479 265.68 280.07 265.089 280.07 264.36C280.07 263.631 279.479 263.04 278.75 263.04C278.021 263.04 277.43 263.631 277.43 264.36C277.43 265.089 278.021 265.68 278.75 265.68Z" fill="#0EA5EA"/>
<path opacity="0.3" d="M366.419 28C366.419 28.2611 366.342 28.5163 366.197 28.7333C366.052 28.9504 365.846 29.1196 365.604 29.2195C365.363 29.3194 365.098 29.3456 364.842 29.2946C364.586 29.2437 364.351 29.118 364.166 28.9334C363.981 28.7488 363.856 28.5136 363.805 28.2575C363.754 28.0015 363.78 27.736 363.88 27.4949C363.98 27.2537 364.149 27.0475 364.366 26.9025C364.583 26.7574 364.838 26.68 365.099 26.68C365.449 26.68 365.785 26.8191 366.033 27.0666C366.28 27.3142 366.419 27.6499 366.419 28Z" fill="#0EA5EA"/>
<path opacity="0.3" d="M114.999 1.32C114.999 1.58107 114.922 1.83628 114.777 2.05335C114.632 2.27043 114.426 2.43961 114.185 2.53952C113.943 2.63943 113.678 2.66557 113.422 2.61464C113.166 2.5637 112.931 2.43799 112.746 2.25338C112.561 2.06878 112.436 1.83357 112.385 1.57752C112.334 1.32146 112.36 1.05606 112.46 0.814858C112.56 0.573659 112.729 0.367504 112.946 0.22246C113.163 0.0774166 113.418 0 113.679 0C114.029 0.00261642 114.363 0.142528 114.61 0.389511C114.857 0.636494 114.997 0.970723 114.999 1.32Z" fill="#0EA5EA"/>
<path opacity="0.3" d="M219.94 70.62C220.669 70.62 221.26 70.029 221.26 69.3C221.26 68.571 220.669 67.98 219.94 67.98C219.211 67.98 218.62 68.571 218.62 69.3C218.62 70.029 219.211 70.62 219.94 70.62Z" fill="#0EA5EA"/>
</g>
<path d="M83.4793 70.63C95.5799 70.63 105.389 60.8206 105.389 48.72C105.389 36.6194 95.5799 26.81 83.4793 26.81C71.3788 26.81 61.5693 36.6194 61.5693 48.72C61.5693 60.8206 71.3788 70.63 83.4793 70.63Z" fill="#0EA5EA"/>
<path opacity="0.7" d="M83.4793 70.63C95.5799 70.63 105.389 60.8206 105.389 48.72C105.389 36.6194 95.5799 26.81 83.4793 26.81C71.3788 26.81 61.5693 36.6194 61.5693 48.72C61.5693 60.8206 71.3788 70.63 83.4793 70.63Z" fill="white"/>
<path opacity="0.2" d="M75.9301 32.19C72.9573 32.2034 70.0182 32.8191 67.2901 34C63.9437 37.7077 61.964 42.447 61.6784 47.4333C61.3929 52.4197 62.8188 57.354 65.72 61.4194C68.6212 65.4849 72.8238 68.4376 77.632 69.7889C82.4403 71.1402 87.5658 70.8089 92.1601 68.85C95.0156 65.707 96.8967 61.8021 97.5748 57.6101C98.2529 53.4181 97.6987 49.1194 95.9796 45.2364C94.2605 41.3534 91.4506 38.0533 87.8913 35.7372C84.332 33.4212 80.1766 32.1888 75.9301 32.19Z" fill="#0EA5EA"/>
<path opacity="0.2" d="M73.75 38C73.75 38.3956 73.6327 38.7822 73.4129 39.1111C73.1932 39.44 72.8808 39.6964 72.5154 39.8478C72.1499 39.9991 71.7478 40.0387 71.3598 39.9616C70.9719 39.8844 70.6155 39.6939 70.3358 39.4142C70.0561 39.1345 69.8656 38.7781 69.7884 38.3902C69.7113 38.0022 69.7509 37.6001 69.9022 37.2346C70.0536 36.8692 70.31 36.5568 70.6389 36.3371C70.9678 36.1173 71.3544 36 71.75 36C72.2804 36 72.7891 36.2107 73.1642 36.5858C73.5393 36.9609 73.75 37.4696 73.75 38Z" fill="#0EA5EA"/>
<path opacity="0.2" d="M97.3096 36C97.3096 36.3956 97.1923 36.7822 96.9725 37.1111C96.7527 37.44 96.4404 37.6964 96.0749 37.8478C95.7095 37.9991 95.3074 38.0387 94.9194 37.9616C94.5314 37.8844 94.1751 37.6939 93.8954 37.4142C93.6157 37.1345 93.4252 36.7781 93.348 36.3902C93.2708 36.0022 93.3104 35.6001 93.4618 35.2346C93.6132 34.8692 93.8695 34.5568 94.1984 34.3371C94.5273 34.1173 94.914 34 95.3096 34C95.84 34 96.3487 34.2107 96.7238 34.5858C97.0989 34.9609 97.3096 35.4696 97.3096 36Z" fill="#0EA5EA"/>
<path opacity="0.2" d="M93.3099 50.26C93.3139 50.9083 93.1256 51.5432 92.7689 52.0845C92.4122 52.6259 91.9031 53.0494 91.3059 53.3015C90.7086 53.5537 90.0501 53.6233 89.4134 53.5014C88.7766 53.3795 88.1903 53.0717 87.7284 52.6168C87.2665 52.1618 86.9498 51.5803 86.8182 50.9455C86.6867 50.3107 86.7462 49.6511 86.9893 49.0501C87.2323 48.4491 87.648 47.9336 88.1839 47.5687C88.7197 47.2039 89.3517 47.0059 89.9999 47C90.4315 46.996 90.8596 47.0773 91.2597 47.2391C91.6599 47.4009 92.0241 47.6401 92.3316 47.943C92.6391 48.2458 92.8838 48.6064 93.0517 49.004C93.2196 49.4016 93.3073 49.8284 93.3099 50.26Z" fill="#0EA5EA"/>
<path opacity="0.2" d="M82.8899 59.61C82.8899 60.4763 82.633 61.3231 82.1517 62.0434C81.6704 62.7637 80.9864 63.3251 80.186 63.6566C79.3857 63.9881 78.505 64.0748 77.6554 63.9058C76.8058 63.7368 76.0253 63.3197 75.4128 62.7071C74.8002 62.0946 74.383 61.3141 74.214 60.4645C74.045 59.6149 74.1318 58.7342 74.4633 57.9338C74.7948 57.1335 75.3562 56.4494 76.0765 55.9682C76.7968 55.4869 77.6436 55.23 78.5099 55.23C79.6715 55.23 80.7856 55.6915 81.607 56.5129C82.4284 57.3343 82.8899 58.4483 82.8899 59.61Z" fill="#0EA5EA"/>
<path d="M343.153 313.004C345.592 302.668 339.191 292.311 328.854 289.871C318.518 287.432 308.161 293.833 305.721 304.17C303.281 314.506 309.683 324.863 320.019 327.303C330.356 329.742 340.713 323.341 343.153 313.004Z" fill="#0EA5EA"/>
<path opacity="0.3" d="M343.153 313.004C345.592 302.668 339.191 292.311 328.854 289.871C318.518 287.432 308.161 293.833 305.721 304.17C303.281 314.506 309.683 324.863 320.019 327.303C330.356 329.742 340.713 323.341 343.153 313.004Z" fill="white"/>
<path opacity="0.4" d="M336.58 293.7C332.323 292.433 327.76 292.679 323.664 294.395C319.568 296.11 316.192 299.191 314.11 303.113C312.027 307.036 311.367 311.558 312.24 315.912C313.113 320.266 315.466 324.184 318.9 327C323.161 328.278 327.733 328.039 331.838 326.324C335.942 324.609 339.325 321.524 341.411 317.594C343.496 313.664 344.154 309.133 343.273 304.773C342.392 300.412 340.027 296.492 336.58 293.68V293.7Z" fill="#0EA5EA"/>
<path d="M306.079 314.31C285.539 323.97 300.859 331.42 329.789 321.02C356.569 311.39 366.789 299.25 342.789 303.02C344.079 308.12 310.529 321.19 306.079 314.31Z" fill="#0EA5EA"/>
<path opacity="0.2" d="M336.35 120.19C309.46 138.36 274.65 162.32 265 220H263C272.35 163 305.89 138.43 332.79 120.19H336.35Z" fill="black"/>
<path d="M197.27 300.63C180.27 300.63 163.46 292.96 155.27 280.44C150.22 272.7 144.35 256.49 161.83 234.86L163.38 236.12C151.02 251.42 148.73 266.77 156.95 279.35C166.95 294.66 190.54 302.35 210.68 296.88C231.3 291.26 243.83 273.32 245.04 247.65C249.17 159.84 295.82 132.79 329.88 113.04C351.06 100.77 366.35 91.91 363 73.2C362.887 72.116 362.548 71.068 362.003 70.1239C361.459 69.1798 360.722 68.3607 359.84 67.72C355.49 64.85 346.99 66.84 337.15 69.13C317.84 73.63 291.4 79.79 275.65 53L277.37 52C292.37 77.53 316.95 71.8 336.69 67.2C346.98 64.81 355.87 62.74 360.94 66.07C363.09 67.48 364.4 69.71 364.94 72.87C368.55 92.95 351.94 102.59 330.89 114.79C297.22 134.31 251.12 161.04 247.03 247.79C245.78 274.39 232.72 293 211.2 298.85C206.657 300.059 201.972 300.658 197.27 300.63Z" fill="#0EA5EA"/>
<path opacity="0.2" d="M197.27 300.63C180.27 300.63 163.46 292.96 155.27 280.44C150.22 272.7 144.35 256.49 161.83 234.86L163.38 236.12C151.02 251.42 148.73 266.77 156.95 279.35C166.95 294.66 190.54 302.35 210.68 296.88C231.3 291.26 243.83 273.32 245.04 247.65C249.17 159.84 295.82 132.79 329.88 113.04C351.06 100.77 366.35 91.91 363 73.2C362.887 72.116 362.548 71.068 362.003 70.1239C361.459 69.1798 360.722 68.3607 359.84 67.72C355.49 64.85 346.99 66.84 337.15 69.13C317.84 73.63 291.4 79.79 275.65 53L277.37 52C292.37 77.53 316.95 71.8 336.69 67.2C346.98 64.81 355.87 62.74 360.94 66.07C363.09 67.48 364.4 69.71 364.94 72.87C368.55 92.95 351.94 102.59 330.89 114.79C297.22 134.31 251.12 161.04 247.03 247.79C245.78 274.39 232.72 293 211.2 298.85C206.657 300.059 201.972 300.658 197.27 300.63Z" fill="white"/>
<path d="M255 29.31C259.608 29.3366 264.185 30.0546 268.58 31.44C268.58 31.44 279.58 50.21 280.88 54.51C280.42 58.75 273.26 65.7 273.26 65.7L255 29.31Z" fill="#0EA5EA"/>
<path opacity="0.3" d="M255 29.31C259.608 29.3366 264.185 30.0546 268.58 31.44C268.58 31.44 279.58 50.21 280.88 54.51C280.42 58.75 273.26 65.7 273.26 65.7L255 29.31Z" fill="white"/>
<path d="M287.59 120.49C283.344 115.311 279.471 109.838 276 104.11C275.16 102.663 274.364 101.19 273.61 99.69C273.18 98.84 272.77 97.99 272.37 97.13C271.841 96.2953 271.434 95.3895 271.16 94.44C269.96 81.77 274.3 72.44 270.16 62.27L253.69 68.71C253.69 68.71 255.09 86.83 258.29 97.71C260.29 104.44 264.77 110.26 269.09 115.65C270.45 117.33 271.75 119.06 273.09 120.75C274.43 122.44 275.81 123.81 277.09 125.4C279.04 127.81 279.68 130.12 278.2 132.96L277.96 133.41C277.54 134.15 279.5 134.99 280.74 133.41C282.74 130.83 282.46 130.99 284.2 128.79C285.26 127.46 286.47 126.01 287.52 124.79C288.028 124.192 288.312 123.437 288.325 122.653C288.337 121.868 288.078 121.104 287.59 120.49Z" fill="#0EA5EA"/>
<path opacity="0.7" d="M287.59 120.49C283.344 115.311 279.471 109.838 276 104.11C275.16 102.663 274.364 101.19 273.61 99.69C273.18 98.84 272.77 97.99 272.37 97.13C271.841 96.2953 271.434 95.3895 271.16 94.44C269.96 81.77 274.3 72.44 270.16 62.27L253.69 68.71C253.69 68.71 255.09 86.83 258.29 97.71C260.29 104.44 264.77 110.26 269.09 115.65C270.45 117.33 271.75 119.06 273.09 120.75C274.43 122.44 275.81 123.81 277.09 125.4C279.04 127.81 279.68 130.12 278.2 132.96L277.96 133.41C277.54 134.15 279.5 134.99 280.74 133.41C282.74 130.83 282.46 130.99 284.2 128.79C285.26 127.46 286.47 126.01 287.52 124.79C288.028 124.192 288.312 123.437 288.325 122.653C288.337 121.868 288.078 121.104 287.59 120.49Z" fill="white"/>
<path opacity="0.3" d="M283.56 115.28C280.943 118.081 278.041 120.601 274.9 122.8C275.33 123.28 275.75 123.8 276.18 124.26C279.326 122.135 282.184 119.61 284.68 116.75L283.56 115.28Z" fill="#0EA5EA"/>
<path opacity="0.3" d="M287.581 120.5C287.55 120.446 287.513 120.396 287.471 120.35C286.693 121.228 286.244 122.348 286.201 123.52C286.136 124.322 286.267 125.129 286.581 125.87L287.531 124.74C288.027 124.147 288.303 123.402 288.312 122.629C288.321 121.856 288.063 121.104 287.581 120.5Z" fill="#0EA5EA"/>
<path d="M251.091 41.31C249.304 43.9851 247.161 46.4041 244.721 48.5C243.366 49.6641 241.883 50.6706 240.301 51.5C239.468 51.9246 238.606 52.2888 237.721 52.59L237.041 52.81L236.821 52.87C236.667 52.9226 236.51 52.966 236.351 53C236.061 53.0679 235.767 53.1147 235.471 53.14C234.627 53.2045 233.779 53.1268 232.961 52.91C231.921 52.6126 230.926 52.1788 230.001 51.62C229.26 51.1872 228.543 50.7166 227.851 50.21C226.599 49.2639 225.404 48.2455 224.271 47.16C222.086 45.0886 220.079 42.8374 218.271 40.43C217.917 39.9605 217.739 39.3816 217.768 38.7942C217.797 38.2069 218.031 37.6484 218.43 37.2162C218.829 36.7841 219.367 36.5056 219.95 36.4296C220.533 36.3535 221.124 36.4846 221.621 36.8L221.701 36.85C224.061 38.35 226.441 39.93 228.761 41.34C229.941 42.03 231.081 42.73 232.211 43.27C232.723 43.5399 233.251 43.7803 233.791 43.99C234.133 44.1388 234.498 44.2268 234.871 44.25C234.871 44.25 234.871 44.18 234.491 44.19C234.377 44.1997 234.263 44.2164 234.151 44.24H233.931L234.261 44.07C234.707 43.8346 235.138 43.5707 235.551 43.28C236.444 42.6467 237.28 41.9374 238.051 41.16C239.814 39.3403 241.467 37.4169 243.001 35.4C243.797 34.3591 244.97 33.6724 246.267 33.4876C247.565 33.3029 248.883 33.6348 249.938 34.412C250.993 35.1893 251.701 36.3496 251.909 37.6434C252.117 38.9372 251.809 40.2611 251.051 41.33L251.091 41.31Z" fill="#0EA5EA"/>
<path opacity="0.7" d="M251.091 41.31C249.304 43.9851 247.161 46.4041 244.721 48.5C243.366 49.6641 241.883 50.6706 240.301 51.5C239.468 51.9246 238.606 52.2888 237.721 52.59L237.041 52.81L236.821 52.87C236.667 52.9226 236.51 52.966 236.351 53C236.061 53.0679 235.767 53.1147 235.471 53.14C234.627 53.2045 233.779 53.1268 232.961 52.91C231.921 52.6126 230.926 52.1788 230.001 51.62C229.26 51.1872 228.543 50.7166 227.851 50.21C226.599 49.2639 225.404 48.2455 224.271 47.16C222.086 45.0886 220.079 42.8374 218.271 40.43C217.917 39.9605 217.739 39.3816 217.768 38.7942C217.797 38.2069 218.031 37.6484 218.43 37.2162C218.829 36.7841 219.367 36.5056 219.95 36.4296C220.533 36.3535 221.124 36.4846 221.621 36.8L221.701 36.85C224.061 38.35 226.441 39.93 228.761 41.34C229.941 42.03 231.081 42.73 232.211 43.27C232.723 43.5399 233.251 43.7803 233.791 43.99C234.133 44.1388 234.498 44.2268 234.871 44.25C234.871 44.25 234.871 44.18 234.491 44.19C234.377 44.1997 234.263 44.2164 234.151 44.24H233.931L234.261 44.07C234.707 43.8346 235.138 43.5707 235.551 43.28C236.444 42.6467 237.28 41.9374 238.051 41.16C239.814 39.3403 241.467 37.4169 243.001 35.4C243.797 34.3591 244.97 33.6724 246.267 33.4876C247.565 33.3029 248.883 33.6348 249.938 34.412C250.993 35.1893 251.701 36.3496 251.909 37.6434C252.117 38.9372 251.809 40.2611 251.051 41.33L251.091 41.31Z" fill="white"/>
<path d="M214.531 34.78L215.701 36.78C215.701 36.78 216.601 39.4 218.391 39.88L223.251 38.31L223.001 37.9C222.381 36.96 222.441 35.13 222.661 33.61C222.881 32.09 222.091 32.04 221.511 32.42C221.171 32.63 220.941 33.33 220.661 34.07C220.429 33.7376 220.168 33.4263 219.881 33.14L218.401 31.66C218.09 31.3565 217.677 31.1817 217.243 31.1705C216.809 31.1594 216.386 31.3128 216.061 31.6L214.861 32.67C214.573 32.931 214.383 33.2828 214.323 33.6667C214.263 34.0506 214.336 34.4435 214.531 34.78Z" fill="#0EA5EA"/>
<path opacity="0.7" d="M214.531 34.78L215.701 36.78C215.701 36.78 216.601 39.4 218.391 39.88L223.251 38.31L223.001 37.9C222.381 36.96 222.441 35.13 222.661 33.61C222.881 32.09 222.091 32.04 221.511 32.42C221.171 32.63 220.941 33.33 220.661 34.07C220.429 33.7376 220.168 33.4263 219.881 33.14L218.401 31.66C218.09 31.3565 217.677 31.1817 217.243 31.1705C216.809 31.1594 216.386 31.3128 216.061 31.6L214.861 32.67C214.573 32.931 214.383 33.2828 214.323 33.6667C214.263 34.0506 214.336 34.4435 214.531 34.78Z" fill="white"/>
<path d="M259.92 27.58C254.526 29.0088 249.359 31.1867 244.57 34.05C243.825 34.5186 243.241 35.2036 242.896 36.0131C242.552 36.8226 242.462 37.7182 242.64 38.58C244.57 48 249 60.66 253.69 68.71L275.81 59.56C275.96 55.66 270.59 43.04 265.12 30.84C264.14 28.65 262.26 27 259.92 27.58Z" fill="#0EA5EA"/>
<path opacity="0.8" d="M259.92 27.58C254.526 29.0088 249.359 31.1867 244.57 34.05C243.825 34.5186 243.241 35.2036 242.896 36.0131C242.552 36.8226 242.462 37.7182 242.64 38.58C244.57 48 249 60.66 253.69 68.71L275.81 59.56C275.96 55.66 270.59 43.04 265.12 30.84C264.14 28.65 262.26 27 259.92 27.58Z" fill="white"/>
<path opacity="0.3" d="M268.54 38.57L264.16 37.1C265.16 39.67 268.69 42.92 271.16 44.84C270.36 42.83 269.47 40.73 268.54 38.57Z" fill="#0EA5EA"/>
<path d="M258.471 17.68C256.641 14.2 252.691 12.45 247.951 12.84C243.951 13.18 240.411 17.26 240.831 19.46C241.251 21.66 244.611 22.6 245.221 23.37L242.451 25.37C242.123 25.6068 241.846 25.9076 241.637 26.2543C241.428 26.6009 241.292 26.9862 241.236 27.387C241.179 27.7878 241.205 28.1958 241.311 28.5864C241.417 28.977 241.6 29.3422 241.851 29.66C243.021 31.14 244.561 32.66 245.451 33.78C253.111 33.58 258.781 30.66 260.821 27.85C260.091 24.28 260.281 21.14 258.471 17.68Z" fill="#0EA5EA"/>
<path opacity="0.8" d="M258.471 17.68C256.641 14.2 252.691 12.45 247.951 12.84C243.951 13.18 240.411 17.26 240.831 19.46C241.251 21.66 244.611 22.6 245.221 23.37L242.451 25.37C242.123 25.6068 241.846 25.9076 241.637 26.2543C241.428 26.6009 241.292 26.9862 241.236 27.387C241.179 27.7878 241.205 28.1958 241.311 28.5864C241.417 28.977 241.6 29.3422 241.851 29.66C243.021 31.14 244.561 32.66 245.451 33.78C253.111 33.58 258.781 30.66 260.821 27.85C260.091 24.28 260.281 21.14 258.471 17.68Z" fill="white"/>
<path d="M254.711 19.84C255.255 21.2346 255.373 22.7591 255.05 24.2209C254.728 25.6826 253.979 27.0159 252.899 28.0523C251.819 29.0886 250.456 29.7815 248.982 30.0433C247.508 30.3052 245.99 30.1242 244.619 29.5232C243.248 28.9223 242.086 27.9284 241.28 26.6672C240.473 25.406 240.059 23.9341 240.089 22.4375C240.12 20.9409 240.593 19.4869 241.449 18.2592C242.306 17.0315 243.507 16.0852 244.901 15.54C246.772 14.811 248.856 14.8544 250.695 15.6606C252.535 16.4668 253.979 17.97 254.711 19.84Z" fill="#263238"/>
<path d="M319.64 110C319.52 106.71 319.38 107 319.29 104.23C319.23 102.53 319.22 100.64 319.21 99.01C319.203 98.2369 318.931 97.4897 318.44 96.8928C317.949 96.2959 317.268 95.8855 316.51 95.73C315.19 95.46 313.86 95.21 312.51 94.93C310.79 94.56 309.08 94.16 307.39 93.67C306.07 93.29 304.77 92.87 303.48 92.4C302.19 91.93 300.74 91.4 299.39 90.78C297.82 90.11 296.26 89.39 294.72 88.65C292.99 87.82 291.28 86.96 289.57 86.09C283 75.16 282.87 68 275.81 59.56L260.65 66.42C260.65 66.42 271.79 86.18 279.37 94.56C283.74 99.39 290.59 101.56 296.7 103.14C301.11 104.27 305.58 105.14 310.05 105.97C311.79 106.29 313.68 106.41 315.18 107.45C316.29 108.301 317.051 109.528 317.32 110.9C317.387 111.18 317.447 111.46 317.5 111.74C317.66 112.58 319.7 112 319.64 110Z" fill="#0EA5EA"/>
<path opacity="0.8" d="M319.64 110C319.52 106.71 319.38 107 319.29 104.23C319.23 102.53 319.22 100.64 319.21 99.01C319.203 98.2369 318.931 97.4897 318.44 96.8928C317.949 96.2959 317.268 95.8855 316.51 95.73C315.19 95.46 313.86 95.21 312.51 94.93C310.79 94.56 309.08 94.16 307.39 93.67C306.07 93.29 304.77 92.87 303.48 92.4C302.19 91.93 300.74 91.4 299.39 90.78C297.82 90.11 296.26 89.39 294.72 88.65C292.99 87.82 291.28 86.96 289.57 86.09C283 75.16 282.87 68 275.81 59.56L260.65 66.42C260.65 66.42 271.79 86.18 279.37 94.56C283.74 99.39 290.59 101.56 296.7 103.14C301.11 104.27 305.58 105.14 310.05 105.97C311.79 106.29 313.68 106.41 315.18 107.45C316.29 108.301 317.051 109.528 317.32 110.9C317.387 111.18 317.447 111.46 317.5 111.74C317.66 112.58 319.7 112 319.64 110Z" fill="white"/>
<path opacity="0.3" d="M312 94.76C311.4 94.63 310.8 94.5 310.19 94.35C310.24 97.81 308.62 103.77 308.03 105.58L309.93 105.94C311.175 102.338 311.873 98.5692 312 94.76Z" fill="#0EA5EA"/>
<path opacity="0.3" d="M319.211 99C319.207 98.2259 318.937 97.4768 318.445 96.8791C317.953 96.2815 317.27 95.872 316.511 95.72L315.561 95.53C315.721 96.6668 316.303 97.7018 317.191 98.43C317.759 98.9604 318.444 99.3507 319.191 99.57C319.211 99.34 319.211 99.16 319.211 99Z" fill="#0EA5EA"/>
<path d="M253.29 19.9C253.7 21.42 252 23.01 250.64 21.7C249.384 20.346 248.008 19.1076 246.53 18C245.13 17.13 246.99 15.61 249.18 16.2C250.115 16.4348 250.978 16.8947 251.695 17.5396C252.411 18.1845 252.959 18.9949 253.29 19.9Z" fill="white"/>
<path d="M253.411 68.22C252.701 68.48 253.991 69.68 253.991 69.68C253.991 69.68 267.991 64.89 276.491 59.96C276.511 59.6615 276.46 59.3625 276.342 59.0877C276.224 58.8129 276.041 58.5703 275.811 58.38C268.536 62.0806 261.057 65.3658 253.411 68.22Z" fill="#0EA5EA"/>
<path opacity="0.5" d="M253.411 68.22C252.701 68.48 253.991 69.68 253.991 69.68C253.991 69.68 267.991 64.89 276.491 59.96C276.511 59.6615 276.46 59.3625 276.342 59.0877C276.224 58.8129 276.041 58.5703 275.811 58.38C268.536 62.0806 261.057 65.3658 253.411 68.22Z" fill="white"/>
<path d="M263.71 26.92C266.47 28.32 269.06 29.79 271.71 31.42C273 32.24 274.28 33.07 275.55 33.97C276.82 34.87 278.08 35.79 279.35 36.83L279.82 37.22L280.41 37.76C280.763 38.0907 281.097 38.4413 281.41 38.81C281.73 39.16 282 39.5 282.26 39.81C282.52 40.12 282.79 40.49 283.03 40.81C283.962 42.0956 284.823 43.4309 285.61 44.81C287.16 47.4843 288.497 50.2763 289.61 53.16C289.816 53.7048 289.826 54.3041 289.64 54.8559C289.454 55.4077 289.082 55.878 288.588 56.1867C288.095 56.4955 287.509 56.6237 286.931 56.5496C286.354 56.4754 285.82 56.2035 285.42 55.78L285.37 55.72C283.37 53.6 281.43 51.35 279.5 49.27C277.57 47.19 275.58 45.05 273.96 44.12C271.69 42.71 269.16 41.3 266.65 39.92L259.09 35.72C257.918 35.0994 257.04 34.0385 256.65 32.7708C256.26 31.503 256.389 30.1322 257.01 28.96C257.631 27.7877 258.691 26.91 259.959 26.5199C261.227 26.1299 262.598 26.2594 263.77 26.88L263.71 26.92Z" fill="#0EA5EA"/>
<path opacity="0.8" d="M263.71 26.92C266.47 28.32 269.06 29.79 271.71 31.42C273 32.24 274.28 33.07 275.55 33.97C276.82 34.87 278.08 35.79 279.35 36.83L279.82 37.22L280.41 37.76C280.763 38.0907 281.097 38.4413 281.41 38.81C281.73 39.16 282 39.5 282.26 39.81C282.52 40.12 282.79 40.49 283.03 40.81C283.962 42.0956 284.823 43.4309 285.61 44.81C287.16 47.4843 288.497 50.2763 289.61 53.16C289.816 53.7048 289.826 54.3041 289.64 54.8559C289.454 55.4077 289.082 55.878 288.588 56.1867C288.095 56.4955 287.509 56.6237 286.931 56.5496C286.354 56.4754 285.82 56.2035 285.42 55.78L285.37 55.72C283.37 53.6 281.43 51.35 279.5 49.27C277.57 47.19 275.58 45.05 273.96 44.12C271.69 42.71 269.16 41.3 266.65 39.92L259.09 35.72C257.918 35.0994 257.04 34.0385 256.65 32.7708C256.26 31.503 256.389 30.1322 257.01 28.96C257.631 27.7877 258.691 26.91 259.959 26.5199C261.227 26.1299 262.598 26.2594 263.77 26.88L263.71 26.92Z" fill="white"/>
<path d="M292.001 58.1L291.131 56C291.131 56 290.661 53.28 288.971 52.52L283.971 53.31L284.141 53.75C284.611 54.75 284.261 56.58 283.801 58.04C283.341 59.5 284.121 59.69 284.751 59.4C285.121 59.24 285.461 58.59 285.851 57.9C286.034 58.2496 286.244 58.584 286.481 58.9L287.711 60.6C287.973 60.9411 288.354 61.1714 288.778 61.2454C289.202 61.3195 289.638 61.2319 290.001 61L291.361 60.13C291.683 59.915 291.921 59.5967 292.038 59.2275C292.154 58.8584 292.141 58.4607 292.001 58.1Z" fill="#0EA5EA"/>
<path opacity="0.8" d="M292.001 58.1L291.131 56C291.131 56 290.661 53.28 288.971 52.52L283.971 53.31L284.141 53.75C284.611 54.75 284.261 56.58 283.801 58.04C283.341 59.5 284.121 59.69 284.751 59.4C285.121 59.24 285.461 58.59 285.851 57.9C286.034 58.2496 286.244 58.584 286.481 58.9L287.711 60.6C287.973 60.9411 288.354 61.1714 288.778 61.2454C289.202 61.3195 289.638 61.2319 290.001 61L291.361 60.13C291.683 59.915 291.921 59.5967 292.038 59.2275C292.154 58.8584 292.141 58.4607 292.001 58.1Z" fill="white"/>
<path opacity="0.3" d="M259.48 38.42L258.27 38.52L250.78 56.6C251.19 56.6295 251.601 56.5957 252 56.5C252 56.5 261.76 52.86 264.71 51.5C262.72 47.41 259.48 38.42 259.48 38.42Z" fill="#0EA5EA"/>
<path d="M245.82 43.16C246.73 47.8862 248.42 52.4282 250.82 56.6C254.48 55.34 260.58 52.96 263.53 51.6C261.567 47.3221 259.825 42.9463 258.31 38.49C255.12 38.73 248.25 41.31 245.82 43.16Z" fill="white"/>
<path opacity="0.3" d="M253.25 47.07C253.104 47.559 252.816 47.9937 252.423 48.319C252.029 48.6443 251.548 48.8457 251.041 48.8976C250.533 48.9496 250.021 48.8497 249.57 48.6107C249.119 48.3717 248.749 48.0044 248.507 47.555C248.265 47.1057 248.161 46.5947 248.21 46.0866C248.258 45.5785 248.456 45.0961 248.779 44.7006C249.101 44.305 249.534 44.014 250.022 43.8644C250.51 43.7147 251.031 43.7132 251.52 43.86C252.175 44.0566 252.725 44.5051 253.049 45.107C253.374 45.7089 253.446 46.4149 253.25 47.07Z" fill="#0EA5EA"/>
<path opacity="0.6" d="M255.161 43.63C255.098 43.8345 254.959 44.0073 254.774 44.1132C254.588 44.2191 254.368 44.2502 254.161 44.2C253.946 44.133 253.766 43.9845 253.659 43.7863C253.553 43.5882 253.528 43.3561 253.591 43.14C253.657 42.9278 253.805 42.7503 254.001 42.6456C254.198 42.5409 254.427 42.5174 254.641 42.58C254.848 42.6506 255.02 42.8008 255.117 42.9976C255.215 43.1944 255.23 43.4218 255.161 43.63Z" fill="#0EA5EA"/>
<path opacity="0.6" d="M257.391 42.76C257.36 42.8667 257.308 42.9662 257.238 43.0528C257.168 43.1393 257.082 43.2112 256.985 43.2642C256.887 43.3172 256.78 43.3504 256.669 43.3616C256.559 43.3729 256.447 43.3622 256.341 43.33C256.225 43.3065 256.115 43.2591 256.018 43.1907C255.922 43.1223 255.84 43.0345 255.78 42.933C255.719 42.8314 255.68 42.7182 255.666 42.6007C255.651 42.4833 255.661 42.3641 255.696 42.2508C255.73 42.1375 255.787 42.0326 255.865 41.9429C255.942 41.8531 256.037 41.7804 256.144 41.7295C256.25 41.6786 256.367 41.6506 256.485 41.6472C256.603 41.6439 256.721 41.6652 256.831 41.71C256.936 41.742 257.035 41.7946 257.12 41.8647C257.206 41.9349 257.277 42.0212 257.329 42.1187C257.381 42.2163 257.413 42.3231 257.424 42.4332C257.434 42.5432 257.423 42.6543 257.391 42.76Z" fill="#0EA5EA"/>
<path opacity="0.5" d="M260.54 50.55L251.29 54.2L250.73 52.38L259.98 48.73L260.54 50.55Z" fill="#0EA5EA"/>
<path opacity="0.2" d="M209.511 189.53C209.489 195.353 208.927 201.161 207.831 206.88C206.651 212.02 204.817 215.78 202.331 218.16C201.172 219.31 199.797 220.218 198.284 220.83C196.772 221.443 195.152 221.749 193.521 221.73C188.381 221.73 184.457 218.927 181.751 213.32C181.275 212.313 180.871 211.274 180.541 210.21C174.824 215.12 169.501 220.469 164.621 226.21L159.311 232.47C162.168 235.366 165.465 237.793 169.081 239.66C175.307 242.88 183.481 244.493 193.601 244.5C195.381 244.5 197.101 244.45 198.771 244.35C204.893 235.291 209.959 225.561 213.871 215.35L228.721 176.63L209.511 189.53Z" fill="black"/>
<path d="M75.6406 242.32L93.1406 259.82L142.141 213.65C125.281 207.24 92.4106 225.55 75.6406 242.32Z" fill="#263238"/>
<path d="M136.67 303.35L119.17 285.85L165.34 236.85C171.75 253.71 153.44 286.58 136.67 303.35Z" fill="#263238"/>
<path d="M203.65 193.06L222.74 156.25L185.93 175.34C174.107 181.473 163.19 189.213 153.49 198.34L90.7402 257.42L121.57 288.25L180.64 225.5C189.771 215.8 197.514 204.883 203.65 193.06Z" fill="#0EA5EA"/>
<path opacity="0.6" d="M203.65 193.06L222.74 156.25L185.93 175.34C174.107 181.473 163.19 189.213 153.49 198.34L90.7402 257.42L121.57 288.25L180.64 225.5C189.771 215.8 197.514 204.883 203.65 193.06Z" fill="white"/>
<path d="M164.45 227.44C171.574 227.44 177.35 221.664 177.35 214.54C177.35 207.416 171.574 201.64 164.45 201.64C157.325 201.64 151.55 207.416 151.55 214.54C151.55 221.664 157.325 227.44 164.45 227.44Z" fill="white"/>
<path d="M164.45 222.83C169.029 222.83 172.74 219.118 172.74 214.54C172.74 209.962 169.029 206.25 164.45 206.25C159.872 206.25 156.16 209.962 156.16 214.54C156.16 219.118 159.872 222.83 164.45 222.83Z" fill="#0EA5EA"/>
<path opacity="0.3" d="M131.991 277.18L101.811 247L126.521 223.73L155.261 252.47L131.991 277.18Z" fill="#0EA5EA"/>
<path d="M82.4702 270C59.8602 271.84 52.3702 286.3 49.8202 305.54C48.5202 315.34 47.9402 325.27 39.7102 331.01C39.2077 331.342 38.8277 331.83 38.6283 332.398C38.4289 332.967 38.4209 333.585 38.6056 334.158C38.7903 334.732 39.1576 335.229 39.6513 335.574C40.1451 335.919 40.7382 336.093 41.3402 336.07C71.6802 335.12 85.8302 320.27 87.6102 314.07C87.1402 317.312 86.3015 320.489 85.1102 323.54C84.8919 324.079 84.8492 324.672 84.9881 325.236C85.1269 325.801 85.4403 326.307 85.8836 326.682C86.3269 327.058 86.8774 327.284 87.4568 327.329C88.0361 327.373 88.6147 327.234 89.1102 326.93C97.6302 321.6 108.31 311.78 109.02 295.85C102.75 287 82.4702 270 82.4702 270Z" fill="#0EA5EA"/>
<path opacity="0.2" d="M82.4702 270C59.8602 271.84 52.3702 286.3 49.8202 305.54C48.5202 315.34 47.9402 325.27 39.7102 331.01C39.2077 331.342 38.8277 331.83 38.6283 332.398C38.4289 332.967 38.4209 333.585 38.6056 334.158C38.7903 334.732 39.1576 335.229 39.6513 335.574C40.1451 335.919 40.7382 336.093 41.3402 336.07C71.6802 335.12 85.8302 320.27 87.6102 314.07C87.1402 317.312 86.3015 320.489 85.1102 323.54C84.8919 324.079 84.8492 324.672 84.9881 325.236C85.1269 325.801 85.4403 326.307 85.8836 326.682C86.3269 327.058 86.8774 327.284 87.4568 327.329C88.0361 327.373 88.6147 327.234 89.1102 326.93C97.6302 321.6 108.31 311.78 109.02 295.85C102.75 287 82.4702 270 82.4702 270Z" fill="white"/>
<path d="M112.52 302.66L76.3301 266.46L95.6101 262.29L116.7 283.38L112.52 302.66Z" fill="#0EA5EA"/>
</g>
<defs>
<linearGradient id="paint0_linear_107_8507" x1="35.2789" y1="242.47" x2="147.37" y2="229.267" gradientUnits="userSpaceOnUse">
<stop stop-color="#0EA5EA"/>
<stop offset="1" stop-color="#0BD1D1"/>
</linearGradient>
<linearGradient id="paint1_linear_107_8507" x1="150.355" y1="244.55" x2="255.447" y2="233.165" gradientUnits="userSpaceOnUse">
<stop stop-color="#0EA5EA"/>
<stop offset="1" stop-color="#0BD1D1"/>
</linearGradient>
<linearGradient id="paint2_linear_107_8507" x1="259.352" y1="242.47" x2="371.485" y2="229.257" gradientUnits="userSpaceOnUse">
<stop stop-color="#0EA5EA"/>
<stop offset="1" stop-color="#0BD1D1"/>
</linearGradient>
<clipPath id="clip0_107_8507">
<rect width="384.19" height="359.88" fill="white"/>
</clipPath>
</defs>
</svg>
