<svg width="24" height="24" viewBox="0 0 24 24" fill="none" xmlns="http://www.w3.org/2000/svg">
<g clip-path="url(#clip0_1198_5232)">
<circle cx="12.5" cy="12.5" r="7.5" fill="#E6F0FF"/>
<path d="M8.25 10.8105V16.3868C8.2502 16.4169 8.2623 16.4457 8.28365 16.4669C8.30501 16.4881 8.3339 16.5 8.364 16.5H15.639C15.6686 16.4992 15.6967 16.487 15.7174 16.4658C15.7381 16.4447 15.7498 16.4163 15.75 16.3868V10.8105L12 7.0605L8.25 10.8105Z" fill="url(#paint0_linear_1198_5232)"/>
<path d="M12 0.75C9.77497 0.75 7.59989 1.4098 5.74984 2.64597C3.89979 3.88213 2.45785 5.63914 1.60636 7.69481C0.754875 9.75048 0.532087 12.0125 0.966171 14.1948C1.40025 16.3771 2.47171 18.3816 4.04505 19.955C5.61839 21.5283 7.62295 22.5998 9.80524 23.0338C11.9875 23.4679 14.2495 23.2451 16.3052 22.3936C18.3609 21.5422 20.1179 20.1002 21.354 18.2502C22.5902 16.4001 23.25 14.225 23.25 12C23.2466 9.01735 22.0603 6.15783 19.9512 4.04878C17.8422 1.93972 14.9827 0.753375 12 0.75ZM18.1553 12.1553C18.0402 12.2755 17.8867 12.3517 17.7213 12.3706C17.556 12.3895 17.3892 12.3499 17.25 12.2587V16.3837C17.2502 16.8121 17.0803 17.223 16.7776 17.526C16.475 17.8291 16.0643 17.9996 15.636 18H8.36101C7.93372 17.9988 7.5243 17.8284 7.22238 17.526C6.92045 17.2237 6.7506 16.814 6.75001 16.3868V12.2618C6.60922 12.348 6.4436 12.3847 6.27955 12.366C6.11549 12.3472 5.96243 12.2741 5.84476 12.1583C5.70415 12.0176 5.62517 11.8269 5.62517 11.628C5.62517 11.4291 5.70415 11.2384 5.84476 11.0977L6.96976 9.97275L11.4698 5.47275C11.6104 5.33215 11.8011 5.25316 12 5.25316C12.1989 5.25316 12.3896 5.33215 12.5303 5.47275L17.0303 9.97275L18.1553 11.0977C18.2949 11.2383 18.3734 11.4284 18.3734 11.6265C18.3734 11.8246 18.2949 12.0147 18.1553 12.1553Z" fill="url(#paint1_linear_1198_5232)"/>
</g>
<defs>
<linearGradient id="paint0_linear_1198_5232" x1="8.69338" y1="16.5" x2="16.7142" y2="15.626" gradientUnits="userSpaceOnUse">
<stop stop-color="#0EA5EA"/>
<stop offset="1" stop-color="#0BD1D1"/>
</linearGradient>
<linearGradient id="paint1_linear_1198_5232" x1="2.08015" y1="23.25" x2="25.9789" y2="19.9725" gradientUnits="userSpaceOnUse">
<stop stop-color="#0EA5EA"/>
<stop offset="1" stop-color="#0BD1D1"/>
</linearGradient>
<clipPath id="clip0_1198_5232">
<rect width="24" height="24" fill="white"/>
</clipPath>
</defs>
</svg>
