<svg width="21" height="20" viewBox="0 0 21 20" fill="none" xmlns="http://www.w3.org/2000/svg">
<g clip-path="url(#clip0_107_8786)">
<path d="M20.3052 10.2304C20.3052 9.55062 20.2501 8.86717 20.1325 8.19843H10.7002V12.0492H16.1016C15.8775 13.2912 15.1573 14.3899 14.1027 15.088V17.5866H17.3252C19.2176 15.8449 20.3052 13.2728 20.3052 10.2304Z" fill="#4285F4"/>
<path d="M10.6999 20.0007C13.397 20.0007 15.6714 19.1151 17.3286 17.5866L14.1061 15.0879C13.2096 15.6979 12.0521 16.0433 10.7036 16.0433C8.09474 16.0433 5.88272 14.2832 5.08904 11.9169H1.76367V14.4927C3.46127 17.8695 6.91892 20.0007 10.6999 20.0007Z" fill="#34A853"/>
<path d="M5.08564 11.9169C4.66676 10.6749 4.66676 9.33005 5.08564 8.08808V5.5123H1.76395C0.345611 8.33795 0.345611 11.667 1.76395 14.4926L5.08564 11.9169Z" fill="#FBBC04"/>
<path d="M10.6999 3.95805C12.1256 3.936 13.5035 4.47247 14.536 5.45722L17.3911 2.60218C15.5833 0.904587 13.1838 -0.0287217 10.6999 0.000673888C6.91892 0.000673888 3.46126 2.13185 1.76367 5.51234L5.08537 8.08813C5.87537 5.71811 8.09106 3.95805 10.6999 3.95805Z" fill="#EA4335"/>
</g>
<defs>
<clipPath id="clip0_107_8786">
<rect width="20" height="20" fill="white" transform="translate(0.5)"/>
</clipPath>
</defs>
</svg>
