<svg width="116" height="36" viewBox="0 0 116 36" fill="none" xmlns="http://www.w3.org/2000/svg">
<path d="M26.951 3.67304V10.9084L17.9673 15.9271V5.87203L24.4261 2.32527C24.6771 2.18453 24.9613 2.10901 25.2513 2.10605C25.5412 2.10308 25.8271 2.17277 26.0811 2.30835C26.3351 2.44393 26.5486 2.64081 26.7011 2.87991C26.8535 3.119 26.9396 3.39221 26.951 3.67304Z" fill="#0EA5EA"/>
<path opacity="0.3" d="M8.98355 3.67304V10.9084L17.9673 15.9271V5.87203L11.5085 2.32527C11.2575 2.18453 10.9733 2.10901 10.6833 2.10605C10.3933 2.10308 10.1075 2.17277 9.8535 2.30835C9.5995 2.44393 9.38594 2.64081 9.23352 2.87991C9.0811 3.119 8.995 3.39221 8.98355 3.67304Z" fill="#0EA5EA"/>
<path d="M25.1509 32.0789L18.8694 28.4882L18.9706 18.1982L27.7001 23.1882L27.5741 30.5556C27.5717 30.8434 27.4962 31.1276 27.3549 31.3808C27.2135 31.634 27.0112 31.8476 26.7674 32.0008C26.5237 32.1541 26.2468 32.2418 25.9635 32.2554C25.6803 32.2691 25.4004 32.2083 25.1509 32.0789Z" fill="#0EA5EA"/>
<path opacity="0.3" d="M34.0676 16.48L27.786 12.8893L18.9706 18.1982L27.7001 23.1882L33.9846 19.341C34.2313 19.1929 34.438 18.9836 34.5844 18.7333C34.7309 18.4831 34.8123 18.2003 34.8206 17.9125C34.829 17.6247 34.764 17.3416 34.6321 17.0906C34.5001 16.8397 34.3057 16.6293 34.0676 16.48Z" fill="#0EA5EA"/>
<path opacity="0.3" d="M10.2771 32.0789L16.5586 28.4882L16.4574 18.1982L7.72785 23.1882L7.85393 30.5556C7.8563 30.8434 7.9318 31.1276 8.07312 31.3808C8.21445 31.634 8.41679 31.8476 8.66056 32.0008C8.90432 32.1541 9.18123 32.2418 9.46444 32.2554C9.74766 32.2691 10.0276 32.2083 10.2771 32.0789Z" fill="#0EA5EA"/>
<path d="M1.36043 16.48L7.64198 12.8893L16.4574 18.1982L7.72785 23.1882L1.44339 19.341C1.19663 19.1929 0.990009 18.9836 0.843538 18.7333C0.697066 18.4831 0.615716 18.2003 0.607371 17.9125C0.599025 17.6247 0.663967 17.3416 0.795903 17.0906C0.92784 16.8397 1.1223 16.6293 1.36043 16.48Z" fill="#0EA5EA"/>
<path d="M54.9462 14.7738C54.8581 14.4145 54.7192 14.0993 54.5294 13.8282C54.3396 13.5503 54.1023 13.3164 53.8176 13.1266C53.5397 12.9301 53.2144 12.7843 52.8416 12.6894C52.4755 12.5877 52.0722 12.5369 51.6316 12.5369C50.6827 12.5369 49.8726 12.764 49.2016 13.2181C48.5373 13.6723 48.0289 14.3264 47.6765 15.1805C47.3308 16.0345 47.1579 17.0649 47.1579 18.2714C47.1579 19.4915 47.324 20.5354 47.6561 21.403C47.9883 22.2706 48.4831 22.9349 49.1406 23.3958C49.7981 23.8568 50.6149 24.0872 51.591 24.0872C52.4518 24.0872 53.1669 23.9618 53.7363 23.711C54.3125 23.4602 54.7429 23.1044 55.0276 22.6434C55.3123 22.1825 55.4546 21.6402 55.4546 21.0166L56.4307 21.1183H51.6723V17.092H60.9044V19.9795C60.9044 21.8775 60.5011 23.5009 59.6945 24.8498C58.8946 26.1919 57.7898 27.2222 56.3799 27.9407C54.9767 28.6525 53.3669 29.0083 51.5503 29.0083C49.5236 29.0083 47.7442 28.5779 46.2123 27.717C44.6804 26.8562 43.484 25.6293 42.6232 24.0364C41.7691 22.4435 41.3421 20.5489 41.3421 18.3527C41.3421 16.631 41.603 15.1059 42.125 13.7773C42.6537 12.4488 43.3857 11.327 44.3212 10.4119C45.2566 9.49004 46.3377 8.79525 47.5646 8.32755C48.7915 7.85306 50.1065 7.61582 51.5096 7.61582C52.7433 7.61582 53.8888 7.79206 54.9462 8.14453C56.0104 8.49023 56.9492 8.98505 57.7627 9.62899C58.5828 10.2662 59.2437 11.0219 59.7453 11.8964C60.2469 12.7708 60.5519 13.7299 60.6604 14.7738H54.9462ZM71.105 29.0083C69.4375 29.0083 68.0005 28.6897 66.794 28.0526C65.5942 27.4086 64.669 26.4868 64.0182 25.287C63.3743 24.0805 63.0523 22.6367 63.0523 20.9556C63.0523 19.3424 63.3777 17.9325 64.0284 16.7259C64.6791 15.5194 65.5976 14.5806 66.7838 13.9095C67.97 13.2385 69.3697 12.9029 70.983 12.9029C72.1624 12.9029 73.23 13.086 74.1858 13.452C75.1415 13.818 75.9583 14.3501 76.6361 15.0483C77.314 15.7397 77.8359 16.5802 78.2019 17.5698C78.568 18.5595 78.751 19.6745 78.751 20.915V22.2164H64.8011V19.1255H73.5859C73.5791 18.6781 73.4639 18.285 73.2402 17.946C73.0233 17.6003 72.7284 17.3326 72.3556 17.1428C71.9896 16.9462 71.5727 16.8479 71.105 16.8479C70.6509 16.8479 70.234 16.9462 69.8544 17.1428C69.4748 17.3326 69.1698 17.597 68.9393 17.9359C68.7156 18.2748 68.597 18.6713 68.5835 19.1255V22.4604C68.5835 22.962 68.6885 23.4094 68.8986 23.8025C69.1088 24.1957 69.4104 24.5041 69.8036 24.7278C70.1967 24.9515 70.6712 25.0633 71.227 25.0633C71.6134 25.0633 71.9659 25.0091 72.2844 24.9006C72.6098 24.7922 72.8877 24.6363 73.1182 24.4329C73.3486 24.2228 73.5181 23.972 73.6266 23.6805H78.751C78.5748 24.7651 78.1579 25.7073 77.5004 26.5071C76.8429 27.3002 75.9719 27.917 74.8873 28.3576C73.8096 28.7914 72.5488 29.0083 71.105 29.0083ZM86.6537 19.9389V28.7236H81.0412V13.1063H86.369V16.0752H86.5317C86.8706 15.0856 87.4671 14.3095 88.3212 13.7468C89.182 13.1842 90.1852 12.9029 91.3308 12.9029C92.4357 12.9029 93.3948 13.1571 94.2082 13.6655C95.0284 14.1671 95.6622 14.8585 96.1095 15.7397C96.5637 16.6209 96.7874 17.6275 96.7806 18.7594V28.7236H91.1681V19.9389C91.1749 19.1661 90.9783 18.5595 90.5784 18.1189C90.1852 17.6783 89.6362 17.458 88.9312 17.458C88.4703 17.458 88.067 17.5597 87.7213 17.763C87.3824 17.9596 87.1214 18.2443 86.9384 18.6171C86.7554 18.9831 86.6605 19.4237 86.6537 19.9389ZM99.7139 28.7236V25.6327L106.547 17.458V17.3767H99.9579V13.1063H113.176V16.5226L106.953 24.3719V24.4533H113.42V28.7236H99.7139Z" fill="#4A576A"/>
</svg>
