<svg height="512pt" viewBox="-32 0 512 512" width="512pt" xmlns="http://www.w3.org/2000/svg"><path d="m188.976562 0c-78.539062 0-142.433593 63.894531-142.433593 142.429688v63.246093h46.933593v-63.246093c0-52.65625 42.839844-95.496094 95.5-95.496094 52.65625 0 95.496094 42.839844 95.496094 95.496094v63.246093h46.933594v-63.246093c0-78.535157-63.894531-142.429688-142.429688-142.429688zm0 0" fill="#ffc850"/><path d="m204.421875.839844c-5.074219-.550782-10.226563-.839844-15.445313-.839844-78.539062 0-142.433593 63.894531-142.433593 142.429688v63.246093h30.894531v-63.246093c0-73.316407 55.683594-133.863282 126.984375-141.589844zm0 0" fill="#feb644"/><path d="m365.855469 202.585938h-353.761719c-6.652344 0-12.09375 5.441406-12.09375 12.09375v285.226562c0 6.652344 5.441406 12.09375 12.09375 12.09375h353.761719c6.652343 0 12.09375-5.441406 12.09375-12.09375 0-11.636719 0-272.09375 0-285.226562 0-6.652344-5.441407-12.09375-12.09375-12.09375zm0 0" fill="#8d909f"/><path d="m0 415.195312h377.949219c0-36.574218 0-79.21875 0-115.804687h-377.949219zm0 0" fill="#75798a"/><path d="m30.890625 499.90625v-285.226562c0-6.652344 5.445313-12.09375 12.09375-12.09375h-30.890625c-6.652344 0-12.09375 5.441406-12.09375 12.09375v285.226562c0 6.652344 5.441406 12.09375 12.09375 12.09375h30.894531c-6.652343 0-12.097656-5.441406-12.097656-12.09375zm0 0" fill="#75798a"/><path d="m0 299.390625h30.890625v115.804687h-30.890625zm0 0" fill="#7e8292"/><path d="m436.042969 337.992188h-248.664063c-6.601562 0-12-5.402344-12-12v-53.203126c0-6.601562 5.398438-12 12-12h248.664063c6.601562 0 12 5.398438 12 12v53.203126c0 6.597656-5.398438 12-12 12zm0 0" fill="#00c3ff"/><path d="m436.042969 453.796875h-248.664063c-6.601562 0-12-5.402344-12-12v-53.203125c0-6.601562 5.398438-12 12-12h248.664063c6.601562 0 12 5.398438 12 12v53.203125c0 6.597656-5.398438 12-12 12zm0 0" fill="#00c3ff"/><path d="m435.679688 307.492188h-247.9375c-6.800782 0-12.363282-5.5625-12.363282-12.363282v30.5c0 6.800782 5.5625 12.363282 12.363282 12.363282h247.9375c6.800781 0 12.363281-5.5625 12.363281-12.363282v-30.5c0 6.800782-5.5625 12.363282-12.363281 12.363282zm0 0" fill="#00aaf0"/><path d="m435.679688 423.296875h-247.9375c-6.800782 0-12.363282-5.5625-12.363282-12.363281v30.5c0 6.800781 5.5625 12.363281 12.363282 12.363281h247.9375c6.800781 0 12.363281-5.5625 12.363281-12.363281v-30.5c0 6.800781-5.5625 12.363281-12.363281 12.363281zm0 0" fill="#00aaf0"/><g fill="#e4eaf8"><path d="m226.320312 307.117188h-12.90625c-4.265624 0-7.726562-3.460938-7.726562-7.726563 0-4.269531 3.460938-7.726563 7.726562-7.726563h12.90625c4.269532 0 7.726563 3.457032 7.726563 7.726563 0 4.265625-3.457031 7.726563-7.726563 7.726563zm0 0"/><path d="m271.933594 307.117188h-12.90625c-4.265625 0-7.726563-3.460938-7.726563-7.726563 0-4.269531 3.457031-7.726563 7.726563-7.726563h12.90625c4.265625 0 7.726562 3.457032 7.726562 7.726563 0 4.265625-3.460937 7.726563-7.726562 7.726563zm0 0"/><path d="m317.546875 307.117188h-12.90625c-4.269531 0-7.726563-3.460938-7.726563-7.726563 0-4.269531 3.457032-7.726563 7.726563-7.726563h12.90625c4.265625 0 7.726563 3.457032 7.726563 7.726563 0 4.265625-3.460938 7.726563-7.726563 7.726563zm0 0"/><path d="m363.160156 307.117188h-12.90625c-4.269531 0-7.730468-3.460938-7.730468-7.726563 0-4.269531 3.460937-7.726563 7.730468-7.726563h12.90625c4.265625 0 7.726563 3.457032 7.726563 7.726563 0 4.265625-3.460938 7.726563-7.726563 7.726563zm0 0"/><path d="m408.773438 307.117188h-12.90625c-4.269532 0-7.726563-3.460938-7.726563-7.726563 0-4.269531 3.457031-7.726563 7.726563-7.726563h12.90625c4.265624 0 7.726562 3.457032 7.726562 7.726563-.003906 4.265625-3.460938 7.726563-7.726562 7.726563zm0 0"/><path d="m226.320312 422.921875h-12.90625c-4.265624 0-7.726562-3.460937-7.726562-7.726563 0-4.269531 3.460938-7.726562 7.726562-7.726562h12.90625c4.269532 0 7.726563 3.457031 7.726563 7.726562 0 4.265626-3.457031 7.726563-7.726563 7.726563zm0 0"/><path d="m271.933594 422.921875h-12.90625c-4.265625 0-7.726563-3.460937-7.726563-7.726563 0-4.269531 3.457031-7.726562 7.726563-7.726562h12.90625c4.265625 0 7.726562 3.457031 7.726562 7.726562 0 4.265626-3.460937 7.726563-7.726562 7.726563zm0 0"/><path d="m317.546875 422.921875h-12.90625c-4.269531 0-7.726563-3.460937-7.726563-7.726563 0-4.269531 3.457032-7.726562 7.726563-7.726562h12.90625c4.265625 0 7.726563 3.457031 7.726563 7.726562 0 4.265626-3.460938 7.726563-7.726563 7.726563zm0 0"/><path d="m363.160156 422.921875h-12.90625c-4.269531 0-7.730468-3.460937-7.730468-7.726563 0-4.269531 3.460937-7.726562 7.730468-7.726562h12.90625c4.265625 0 7.726563 3.457031 7.726563 7.726562 0 4.265626-3.460938 7.726563-7.726563 7.726563zm0 0"/><path d="m408.773438 422.921875h-12.90625c-4.269532 0-7.726563-3.460937-7.726563-7.726563 0-4.269531 3.457031-7.726562 7.726563-7.726562h12.90625c4.265624 0 7.726562 3.457031 7.726562 7.726562 0 4.265626-3.460938 7.726563-7.726562 7.726563zm0 0"/></g></svg>