<svg width="18" height="18" viewBox="0 0 18 18" fill="none" xmlns="http://www.w3.org/2000/svg">
<circle cx="9" cy="9" r="9" fill="#D8E6FB"/>
<g clip-path="url(#clip0_1114_1294)">
<path d="M11.9179 11.8137C12.4675 11.2641 12.826 10.5958 12.9937 9.89136C13.0417 9.68957 12.7937 9.55333 12.6474 9.70036C12.6456 9.70218 12.6438 9.70397 12.642 9.70577C11.4191 10.9286 9.42177 10.9051 8.22876 9.63504C7.10401 8.43768 7.11877 6.5788 8.26094 5.39804C8.27534 5.38316 8.28985 5.36845 8.30448 5.35391C8.45119 5.20816 8.31407 4.96129 8.11287 5.0091C7.41466 5.17503 6.75194 5.52846 6.205 6.06958C4.60582 7.65174 4.59681 10.2169 6.18533 11.8098C7.7669 13.3957 10.3346 13.397 11.9179 11.8137Z" fill="#0EA5EA"/>
</g>
<defs>
<clipPath id="clip0_1114_1294">
<rect width="8" height="8" fill="white" transform="translate(5 5)"/>
</clipPath>
</defs>
</svg>
