<svg width="18" height="18" viewBox="0 0 18 18" fill="none" xmlns="http://www.w3.org/2000/svg">
<circle cx="9" cy="9" r="9" fill="#D8E6FB"/>
<g clip-path="url(#clip0_13_127)">
<path d="M8.99563 6.34412C8.47015 6.34402 7.95645 6.49975 7.51948 6.79161C7.08252 7.08348 6.74192 7.49837 6.54076 7.98381C6.3396 8.46926 6.28691 9.00345 6.38937 9.51884C6.49182 10.0342 6.74481 10.5077 7.11634 10.8793C7.48786 11.2509 7.96125 11.504 8.47662 11.6065C8.99199 11.7091 9.5262 11.6565 10.0117 11.4554C10.4972 11.2544 10.9121 10.9138 11.2041 10.4769C11.496 10.04 11.6519 9.52637 11.6519 9.0009C11.6512 8.29659 11.3711 7.62133 10.8731 7.12326C10.3751 6.62519 9.69993 6.34498 8.99563 6.34412Z" fill="#D69C59"/>
<path d="M13.2188 8.53207H12.5943C12.47 8.53207 12.3507 8.58147 12.2628 8.66939C12.1749 8.75731 12.1255 8.87656 12.1255 9.0009C12.1255 9.12524 12.1749 9.24449 12.2628 9.33241C12.3507 9.42034 12.47 9.46973 12.5943 9.46973H13.2188C13.3431 9.46973 13.4624 9.42034 13.5503 9.33241C13.6382 9.24449 13.6876 9.12524 13.6876 9.0009C13.6876 8.87656 13.6382 8.75731 13.5503 8.66939C13.4624 8.58147 13.3431 8.53207 13.2188 8.53207Z" fill="#D69C59"/>
<path d="M8.99587 12.1248C8.87161 12.1249 8.7525 12.1744 8.66467 12.2623C8.57684 12.3502 8.52745 12.4693 8.52734 12.5936V13.2187C8.52734 13.3429 8.5767 13.4621 8.66456 13.5499C8.75242 13.6378 8.87158 13.6871 8.99583 13.6871C9.12008 13.6871 9.23924 13.6378 9.32709 13.5499C9.41495 13.4621 9.46431 13.3429 9.46431 13.2187V12.5936C9.46422 12.4693 9.41485 12.3502 9.32703 12.2623C9.23921 12.1744 9.12011 12.1249 8.99587 12.1248Z" fill="#D69C59"/>
<path d="M5.87375 9.0009C5.87364 8.87665 5.82425 8.75751 5.73642 8.66962C5.64859 8.58173 5.52948 8.53226 5.40523 8.53207H4.78084C4.6565 8.53207 4.53725 8.58147 4.44933 8.66939C4.36141 8.75731 4.31201 8.87656 4.31201 9.0009C4.31201 9.12524 4.36141 9.24449 4.44933 9.33241C4.53725 9.42034 4.6565 9.46973 4.78084 9.46973H5.40523C5.52948 9.46954 5.64859 9.42008 5.73642 9.33219C5.82426 9.2443 5.87364 9.12516 5.87375 9.0009Z" fill="#D69C59"/>
<path d="M8.99579 5.87522C9.12004 5.87503 9.23915 5.82557 9.32698 5.73768C9.41481 5.64979 9.4642 5.53065 9.46431 5.4064V4.78132C9.46431 4.65707 9.41495 4.53791 9.32709 4.45005C9.23924 4.36219 9.12008 4.31284 8.99583 4.31284C8.87158 4.31284 8.75242 4.36219 8.66456 4.45005C8.5767 4.53791 8.52734 4.65707 8.52734 4.78132V5.4064C8.52743 5.53064 8.57681 5.64978 8.66463 5.73767C8.75245 5.82556 8.87154 5.87503 8.99579 5.87522Z" fill="#D69C59"/>
<path d="M11.8688 6.7905L12.3107 6.3485C12.3544 6.30503 12.389 6.25338 12.4127 6.1965C12.4363 6.13963 12.4486 6.07865 12.4486 6.01705C12.4487 5.95545 12.4366 5.89444 12.413 5.83752C12.3895 5.78059 12.355 5.72887 12.3114 5.68531C12.2678 5.64176 12.2161 5.60722 12.1592 5.58367C12.1023 5.56012 12.0413 5.54804 11.9797 5.5481C11.9181 5.54816 11.8571 5.56036 11.8002 5.58402C11.7433 5.60768 11.6917 5.64232 11.6482 5.68596L11.2062 6.12797C11.1626 6.17144 11.1279 6.22309 11.1043 6.27997C11.0806 6.33684 11.0684 6.39783 11.0684 6.45943C11.0683 6.52103 11.0804 6.58203 11.1039 6.63896C11.1275 6.69588 11.162 6.7476 11.2056 6.79116C11.2491 6.83471 11.3009 6.86925 11.3578 6.8928C11.4147 6.91634 11.4757 6.92843 11.5373 6.92837C11.5989 6.92831 11.6599 6.9161 11.7168 6.89244C11.7736 6.86878 11.8253 6.83414 11.8688 6.7905Z" fill="#D69C59"/>
<path d="M11.8687 11.2113C11.8252 11.1677 11.7736 11.1331 11.7167 11.1094C11.6598 11.0858 11.5988 11.0736 11.5372 11.0735C11.4757 11.0735 11.4147 11.0856 11.3577 11.1091C11.3008 11.1327 11.2491 11.1672 11.2056 11.2108C11.162 11.2543 11.1275 11.306 11.1039 11.3629C11.0804 11.4199 11.0683 11.4809 11.0684 11.5424C11.0684 11.604 11.0806 11.665 11.1043 11.7219C11.1279 11.7788 11.1625 11.8304 11.2062 11.8739L11.6481 12.3159C11.6916 12.3595 11.7433 12.3941 11.8001 12.4178C11.857 12.4414 11.918 12.4536 11.9796 12.4537C12.0412 12.4537 12.1022 12.4417 12.1591 12.4181C12.216 12.3946 12.2677 12.36 12.3113 12.3165C12.3548 12.2729 12.3893 12.2212 12.4129 12.1643C12.4364 12.1074 12.4485 12.0464 12.4485 11.9848C12.4484 11.9232 12.4362 11.8622 12.4126 11.8053C12.3889 11.7485 12.3543 11.6968 12.3107 11.6533L11.8687 11.2113Z" fill="#D69C59"/>
<path d="M6.1229 11.2113L5.6809 11.6533C5.63725 11.6968 5.60259 11.7484 5.57892 11.8053C5.55525 11.8622 5.54304 11.9232 5.54297 11.9848C5.5429 12.0464 5.55499 12.1074 5.57853 12.1644C5.60208 12.2213 5.63662 12.273 5.68018 12.3166C5.72375 12.3601 5.77547 12.3947 5.8324 12.4182C5.88934 12.4418 5.95035 12.4539 6.01196 12.4538C6.07356 12.4537 6.13455 12.4415 6.19143 12.4178C6.24831 12.3942 6.29997 12.3595 6.34343 12.3159L6.78544 11.8739C6.82906 11.8304 6.86369 11.7787 6.88734 11.7219C6.91098 11.665 6.92318 11.604 6.92323 11.5424C6.92329 11.4808 6.9112 11.4198 6.88765 11.3629C6.86411 11.306 6.82957 11.2543 6.78602 11.2107C6.74247 11.1672 6.69075 11.1326 6.63384 11.1091C6.57693 11.0856 6.51593 11.0735 6.45434 11.0735C6.39274 11.0736 6.33177 11.0858 6.2749 11.1094C6.21802 11.1331 6.16637 11.1677 6.1229 11.2113Z" fill="#D69C59"/>
<path d="M6.12311 6.79044C6.1666 6.834 6.21825 6.86857 6.2751 6.89216C6.33196 6.91575 6.3929 6.92791 6.45446 6.92793C6.51601 6.92796 6.57697 6.91586 6.63385 6.89231C6.69072 6.86877 6.7424 6.83424 6.78593 6.79072C6.82945 6.74719 6.86397 6.69551 6.88752 6.63864C6.91106 6.58176 6.92317 6.52081 6.92314 6.45925C6.92311 6.3977 6.91096 6.33675 6.88737 6.27989C6.86377 6.22304 6.82921 6.17139 6.78564 6.1279L6.34364 5.6859C6.30018 5.6422 6.24853 5.6075 6.19164 5.5838C6.13475 5.56009 6.07374 5.54785 6.0121 5.54776C5.95047 5.54767 5.88943 5.55975 5.83247 5.5833C5.77551 5.60684 5.72376 5.6414 5.68018 5.68498C5.6366 5.72856 5.60205 5.78031 5.5785 5.83727C5.55496 5.89422 5.54288 5.95527 5.54297 6.0169C5.54306 6.07853 5.5553 6.13954 5.57901 6.19643C5.60271 6.25332 5.63741 6.30498 5.68111 6.34844L6.12311 6.79044Z" fill="#D69C59"/>
</g>
<defs>
<clipPath id="clip0_13_127">
<rect width="10" height="10" fill="white" transform="translate(4 4)"/>
</clipPath>
</defs>
</svg>
